<svg width="48" height="72" viewBox="0 0 48 72" fill="none" xmlns="http://www.w3.org/2000/svg">
<path d="M35.7284 24.274C42.2053 24.274 47.4559 29.5246 47.4559 36.0015C47.4559 42.4783 42.2053 47.729 35.7284 47.729C29.2516 47.729 24.001 42.4783 24.001 36.0015C24.001 29.5246 29.2516 24.274 35.7284 24.274Z" fill="#1ABCFE"/>
<path d="M0.545959 59.4564C0.545959 52.9796 5.7966 47.7289 12.2734 47.7289H24.0009V59.4564C24.0009 65.9333 18.7503 71.1839 12.2734 71.1839C5.7966 71.1839 0.545959 65.9333 0.545959 59.4564Z" fill="#0ACF83"/>
<path d="M0.546021 36.0015C0.546021 42.4783 5.79667 47.729 12.2735 47.729H24.001V24.274H12.2735C5.79667 24.274 0.546021 29.5246 0.546021 36.0015Z" fill="#A259FF"/>
<path d="M24.001 0.819V24.274H35.7285C42.2053 24.274 47.4559 19.0233 47.4559 12.5465C47.4559 6.06965 42.2053 0.819 35.7285 0.819H24.001Z" fill="#FF7262"/>
<path d="M0.546021 12.5465C0.546021 19.0233 5.79667 24.274 12.2735 24.274H24.001V0.819H12.2735C5.79667 0.819 0.546021 6.06965 0.546021 12.5465Z" fill="#F24E1E"/>
</svg>
